<svg width="11" height="12" viewBox="0 0 11 12" fill="none" xmlns="http://www.w3.org/2000/svg">
<path d="M1.14911 0.00783305L9.19867 0.000974235C9.83643 0.000430817 10.3368 0.577729 10.3374 1.28384L10.3508 10.2707C10.3514 10.9768 9.84628 11.5549 9.20852 11.5555L1.15895 11.5623C0.526936 11.5629 0.00934144 10.9856 0.00873978 10.2795L0.00108236 1.29264C0.000480703 0.586537 0.517091 0.00837157 1.14911 0.00783305ZM1.15567 7.71082L3.4539 7.70887C3.45481 8.77445 4.2312 9.63395 5.17922 9.63315C6.12724 9.63234 6.90216 8.77151 6.90125 7.70593L9.20523 7.70397L9.19976 1.28481L1.1502 1.29167L1.15567 7.71082ZM2.87661 4.49978L4.02573 4.4988L4.02409 2.57305L6.32232 2.57109L6.32396 4.49684L7.47308 4.49586L5.17703 7.06548L2.87661 4.49978Z" fill="#46BCFF"/>
</svg>
