<svg width="10" height="13" viewBox="0 0 10 13" fill="none" xmlns="http://www.w3.org/2000/svg">
<path d="M8.71094 0H1.28906C0.578262 0 0 0.578262 0 1.28906V8.08594C0 8.79674 0.578262 9.375 1.28906 9.375H7.8125C8.19824 9.375 8.5609 9.22478 8.83367 8.95201L9.57701 8.20867C9.84978 7.93592 10 7.57324 10 7.1875V1.28906C10 0.578262 9.42174 0 8.71094 0ZM9.13508 7.76674L8.39174 8.51008C8.31406 8.58773 8.22357 8.64789 8.125 8.68853V7.77344C8.125 7.62266 8.24766 7.5 8.39844 7.5H9.31353C9.27287 7.59855 9.21273 7.68908 9.13508 7.76674Z" fill="#FFE600"/>
<path d="M7.8125 4.0625C7.8125 3.88992 7.6726 3.75 7.5 3.75H2.5C2.3274 3.75 2.1875 3.88992 2.1875 4.0625C2.1875 4.23508 2.3274 4.375 2.5 4.375H7.5C7.6726 4.375 7.8125 4.23508 7.8125 4.0625Z" fill="white"/>
<path d="M6.875 5.3125H3.125C2.9524 5.3125 2.8125 5.45242 2.8125 5.625C2.8125 5.79758 2.9524 5.9375 3.125 5.9375H6.875C7.0476 5.9375 7.1875 5.79758 7.1875 5.625C7.1875 5.45242 7.0476 5.3125 6.875 5.3125Z" fill="white"/>
</svg>
