<svg width="11" height="10" viewBox="0 0 11 10" fill="none" xmlns="http://www.w3.org/2000/svg">
<path d="M7.17574 5.93398C8.43688 4.23893 8.01509 1.89178 6.23426 0.691675C4.45343 -0.508428 1.98751 -0.107246 0.726675 1.58809C-0.534156 3.28315 -0.112673 5.63002 1.66846 6.83012C2.93953 7.68668 4.62004 7.75263 5.96071 6.99902L8.87372 9.7551C9.18825 10.0703 9.71157 10.0829 10.0427 9.78349C10.3738 9.48439 10.387 8.98629 10.0728 8.67113C10.0629 8.6611 10.0532 8.65192 10.0427 8.64246L7.17574 5.93398ZM3.9488 6.19092C2.54155 6.19121 1.40062 5.1061 1.39972 3.76663C1.39942 2.42716 2.53944 1.34119 3.94699 1.34062C5.35243 1.34005 6.49276 2.42343 6.49547 3.76118C6.49788 5.10094 5.35846 6.18863 3.95061 6.19092C3.95 6.19092 3.9497 6.19092 3.9488 6.19092Z" fill="#B4B1B1"/>
</svg>
